<?xml version="1.0" encoding="utf-8"?>
<!-- Generator: Adobe Illustrator 23.1.0, SVG Export Plug-In . SVG Version: 6.00 Build 0)  -->
<svg version="1.1" id="Capa_1" xmlns="http://www.w3.org/2000/svg" xmlns:xlink="http://www.w3.org/1999/xlink" x="0px" y="0px"
	 viewBox="0 0 595.28 841.89" style="enable-background:new 0 0 595.28 841.89;" xml:space="preserve">
<style type="text/css">
	.st0{fill:#FFFFFF;stroke:#000000;stroke-miterlimit:10;}
	.st1{fill:#432918;stroke:#000000;stroke-miterlimit:10;}
</style>
<path class="st0" d="M157,223c2-3-161-275,50-139s313-139,251,91s-84,371-179,236S49.61,229,98.81,332s182.47,260,198.83,271
	C314,614,484,605,484,605s31-77,20-131s82-83-42-127s-187-109-177,53s96,401-28,270S-67,519,144,459s293,149,294-23s-66-274-175-225
	S157,223,157,223z"/>
<rect x="-103" y="12" class="st1" width="339" height="256"/>
<rect x="51.73" y="368" class="st1" width="42.27" height="48"/>
<rect x="214.31" y="336.59" class="st1" width="55.41" height="55.41"/>
<rect x="434.49" y="278" class="st1" width="7.51" height="58.59"/>
<rect x="527.21" y="225" class="st1" width="55.79" height="20"/>
<circle class="st1" cx="189.01" cy="553.01" r="53.01"/>
<circle class="st1" cx="470.12" cy="691.88" r="31.88"/>
<circle class="st1" cx="556" cy="539" r="17"/>
<circle class="st1" cx="442.65" cy="280.65" r="26.65"/>
<circle class="st1" cx="442.5" cy="91.5" r="21.5"/>
<circle class="st1" cx="521" cy="3" r="35"/>
<circle class="st1" cx="660" cy="70" r="43"/>
<circle class="st1" cx="392.5" cy="583.5" r="156.5"/>
<circle class="st1" cx="48.5" cy="757.51" r="151.5"/>
</svg>
